# xmcd
#
# Track frame offsets: 
#        150
#        14415
#        22982
#        34802
#        49608
#        61535
#        73736
#        87081
#        100061
#        110231
#        124237
#        138974
#        150694
#        164957
#        173476
#        185294
#        200102
#        212035
#        224280
#        237664
#        250274
#        260469
#        274564
#        289320
#
# Disc length: 4006 seconds
#
# Revision: 0
# Processed by: cddbd v1.5.2PL0 Copyright (c) Steve Scherf et al.
# Submitted via: ExactAudioCopy v0.99pb4
#
DISCID=650fa418
DTITLE=Nat King Cole - St. Louis Blues
DYEAR=1958
DGENRE=Pop
TTITLE0=Overture, Love Theme, Hesitation Blues
TTITLE1=Harlem Blues
TTITLE2=Chantez Les Bas
TTITLE3=Friendless Blues
TTITLE4=Stay
TTITLE5=Joe Turner's Blues
TTITLE6=Beale Street Blues
TTITLE7=Careless Love
TTITLE8=Morning Star
TTITLE9=Memphis Blues
TTITLE10=Yellow Dog Blues
TTITLE11=St. Louis Blues
TTITLE12=Overture, Love Theme, Hesitation Blues (mono)
TTITLE13=Harlem Blues (mono)
TTITLE14=Chantez Les Bas (mono)
TTITLE15=Friendless Blues (mono)
TTITLE16=Stay (mono)
TTITLE17=Joe Turner's Blues (mono)
TTITLE18=Beale Street Blues (mono)
TTITLE19=Careless Love (mono)
TTITLE20=Morning Star (mono)
TTITLE21=Memphis Blues (mono)
TTITLE22=Yellow Dog Blues (mono)
TTITLE23=St. Louis Blues (mono)
EXTD=
EXTT0=
EXTT1=
EXTT2=
EXTT3=
EXTT4=
EXTT5=
EXTT6=
EXTT7=
EXTT8=
EXTT9=
EXTT10=
EXTT11=
EXTT12=
EXTT13=
EXTT14=
EXTT15=
EXTT16=
EXTT17=
EXTT18=
EXTT19=
EXTT20=
EXTT21=
EXTT22=
EXTT23=
PLAYORDER=
